<svg height="480pt" viewBox="-56 0 480 480" width="480pt" xmlns="http://www.w3.org/2000/svg"><path d="m184 480-24.808594-11.863281c-97.269531-46.519531-159.191406-144.769531-159.191406-252.601563v-143.535156h8c51.929688 0 102.457031-16.839844 144-48l32-24" fill="#70b48f"/><path d="m184 0 32 24c41.542969 31.160156 92.070312 48 144 48h8v143.535156c0 107.824219-61.921875 206.074219-159.191406 252.601563l-24.808594 11.863281" fill="#599072"/><path d="m184 440-5.59375-2.648438c-89.40625-42.351562-146.40625-132.421874-146.40625-231.359374v-101.992188h1.566406c40.578125 0 80.113282-12.855469 112.929688-36.71875l37.503906-27.28125" fill="#bab8b9"/><path d="m184 40 37.503906 27.28125c32.816406 23.863281 72.351563 36.71875 112.929688 36.71875h1.566406v101.992188c0 98.929687-57 189.007812-146.40625 231.359374l-5.59375 2.648438" fill="#999"/><path d="m160 344h48v48h-48zm0 0" fill="#ca5057"/><path d="m160 104h48v208h-48zm0 0" fill="#ca5057"/><g fill="#dc6068"><path d="m160 344h24v48h-24zm0 0"/><path d="m160 104h24v208h-24zm0 0"/></g></svg>